<?xml version="1.0" encoding="utf-8"?>
<!-- Generator: Adobe Illustrator 23.0.1, SVG Export Plug-In . SVG Version: 6.00 Build 0)  -->
<svg version="1.1" id="Laag_1" xmlns="http://www.w3.org/2000/svg" xmlns:xlink="http://www.w3.org/1999/xlink" x="0px" y="0px"
	 viewBox="0 0 1325 378" style="enable-background:new 0 0 1325 378;" xml:space="preserve">
<style type="text/css">
	.st0{fill:#FFFFFF;}
	.st1{fill-rule:evenodd;clip-rule:evenodd;fill:#FF4044;}
	.st2{opacity:0.75;fill-rule:evenodd;clip-rule:evenodd;fill:#444444;enable-background:new    ;}
	.st3{fill-rule:evenodd;clip-rule:evenodd;fill:#FFFFFF;}
	.st4{fill:none;}
</style>
<g>
	<g>
		<g>
			<g>
				<path class="st0" d="M417.1,183c0-40.7,28.2-72.9,68.9-72.9c14.7,0,28.6,4.5,39.2,12.1c2.9,2.1,5.3,4.5,7.7,7
					c2.4,2.9,4.8,6.2,6.4,9.7c2.2,3.9,3.5,8.6,3.5,13.3c0,6-3.5,11.3-11.4,11.3c-5.5,0-9.9-2.5-13.2-12.1
					c0-17.3-13.4-30.8-34.3-30.8c-25.5,0-44.7,21.8-44.7,53.4c0,37.4,19.1,67.6,54.1,67.6c24.9,0,40.5-12.3,44-29.2
					c1.8-4.3,8.8-3.3,8.6,1.8c-2.2,20.9-21.1,44.2-59,44.2C448.1,258.4,417.1,229,417.1,183z"/>
				<path class="st0" d="M550.2,207.6c0-29.6,22-50.7,53.9-50.7s53.7,21.2,53.7,50.7c0,29.8-21.8,50.7-53.7,50.7
					S550.2,237.2,550.2,207.6z M637.1,213.8c0-23.2-13.4-47.4-34.8-47.4c-18.5,0-31.5,13.8-31.5,35.1c0,23.6,13.4,47.6,34.8,47.6
					C624.4,249.1,637.1,235.4,637.1,213.8z"/>
				<path class="st0" d="M658.3,252.4c0-2.3,1.3-3.5,3.5-4.1c12.5-1.8,12.5-5.1,12.5-15.8v-53c0-5.1-0.2-8.2-5.7-8
					c-6.6,0.4-11.9,1.4-12.1-1.8c-0.2-3.3,2.9-4.5,6.4-5.5c10.1-2.7,20-6.2,24.9-6.2c4.4,0,6.2,1.4,6.2,5.5v11.7
					c0,1.4,0,3.1,0.9,3.1c1.3,0,6.6-21.4,31.2-21.4c15,0,23.3,9.2,23.3,23.4c0,7.2-3.3,14.8-11.9,14.8c-4,0-9.5-2.7-8.1-9.2
					c2-4.5,3.3-15.4-11-15.4c-12.1,0-24.4,12.3-24.4,33.9v28.1c0,10.7,0.2,13.8,12.8,15.8c2.2,0.6,4,1.8,4,4.1c0,2.9-2,4.5-12.8,4.5
					c-8.8-0.2-17.6-0.2-26.4,0C661,256.9,658.3,255.3,658.3,252.4z"/>
				<path class="st0" d="M751,230.8c0-17.5,16.1-29.8,46.2-30.6c17.6-0.4,20.5-1.6,19.6-6.8l-0.7-5.1c-2-14.4-8.6-22.2-21.6-22.2
					c-12.8,0-21.8,6.8-21.6,19.1c-0.7,5.1-4.2,8-9.9,8c-3.7,0-7.7-2.7-7.7-7.8c0-15.8,18.7-28.5,43.3-28.5c23.5,0,34.3,11.9,37,32.9
					l5.3,39.6c1.5,12.7,4.4,15.2,8.4,15.2c5.5,0,5.7-5.8,8.6-5.8c1.8,0,3.1,1.2,3.1,3.9c0,6-6.8,14.8-17.6,14.8
					c-11,0-15.6-6.2-18-16.4c-0.4-1-1.1-1.8-1.5-1.8c-2.9,0-8.1,19.1-39.6,19.1C760.9,258.4,751,246.5,751,230.8z M820.1,217.5
					l-0.4-4.1c-0.9-5.8-3.3-5.8-18-5.8c-22.4,0-30.8,8.8-30.8,19.7c0,12.5,6.8,20.1,21.6,20.1C809.1,247.5,822.3,234.1,820.1,217.5z
					"/>
				<path class="st0" d="M861.6,252.4c0-2.3,1.5-3.5,3.7-4.1c12.5-1.8,12.5-5.1,12.5-15.8v-100c0-4.9-0.4-8-5.9-7.8
					c-6.4,0.4-11.7,1.4-11.9-1.8c-0.2-3.3,2.9-4.5,6.4-5.5c9.9-2.7,20-6.2,24.9-6.2c4.2,0,5.9,1.4,5.9,5.5v115.8
					c0,10.7,0.2,13.8,12.8,15.8c2.2,0.6,4,1.8,4,4.1c0,2.9-2,4.5-12.8,4.5c-8.6-0.2-17.4-0.2-26.2,0
					C864.3,256.9,861.6,255.3,861.6,252.4z"/>
			</g>
		</g>
		<g>
			<g>
				<path class="st0" d="M930.8,253.1c0-1.8,2.2-2.7,4-3.1c13.2-0.2,14.7-1.4,19.1-12.1c15.8-38.6,31.7-76.8,47.5-115.2
					c1.3-3.5,0.7-5.5-4.8-5.8c-2.4-0.2-3.5-1-3.5-2.9c0-1.2,1.1-2.7,4.2-2.7h7.7c5.3,0,6.6,2.5,7.9,5.8l50.2,121
					c4.2,10.5,5.5,11.5,18.3,11.7c2.4,0.2,3.7,1,3.7,3.1c0,2.3-2,3.1-4.6,2.9c-9-0.4-29.3-0.4-39.6,0c-4,0-6.2-0.6-6.2-2.9
					c0-1.4,1.3-2.3,3.7-2.5c17.6-0.4,18.9-1.4,14.5-12.1l-10.1-24.2c-1.5-3.7-2.6-5.3-7.9-5.3h-54.6c-6.8,0-8.1,0.6-9.9,5.1
					l-9.9,24.2c-4.6,10.7-3.5,11.9,13.6,12.3c3.1,0,4.6,0.8,4.6,2.5c0,2.5-2.6,2.9-5.3,2.9c-9.5-0.4-29.5-0.4-38.5,0
					C931.7,256,930.8,254.4,930.8,253.1z M1033.3,203c3.3,0,4.6-1,3.1-5.3c-9.5-23-18.9-46-28.4-69.4c-0.9-1.8-1.8-1.8-2.6,0
					c-9.7,23.4-19.1,46.8-28.8,70.4c-1.5,3.9,1.1,4.3,4.6,4.3L1033.3,203L1033.3,203z"/>
				<path class="st0" d="M1078.7,290.1c0-1.6,1.3-2.5,3.1-2.7c14.1-0.6,14.1-2.3,14.1-12.1V174.1c0-4.5,0-6.8-5.7-6
					c-7.7,1-13,3.3-13.4,0.2c-0.2-2.3,2.2-3.3,4.2-3.7c9.7-2.3,17.4-5.1,20-5.1c2.9,0,4,1.4,4,4.3v15c0,2.1,0.2,2.7,0.7,2.7
					c1.1,0,8.4-22.8,37.2-22.8c22.7,0,40.5,17.9,40.5,48.9c0,29.2-18.5,49.9-44.2,49.9c-13.2,0-21.6-4.9-28.4-12.3
					c-1.5-1.4-3.3-3.5-4-3.5c-1.1,0-1.8,1.2-1.8,4.7v29.2c0,9.9,0,11.3,14.3,11.9c2,0.2,3.5,1,3.5,2.7c0,1.4-1.3,2.7-5.5,2.7
					c-10.8-0.2-21.8-0.2-32.6,0C1080.2,292.8,1078.7,291.5,1078.7,290.1z M1173.7,209.8c0-27.3-14.3-44.4-33.7-44.4
					c-23.8,0-35.2,18.1-35.2,39.8v4.3c0,29,13.6,42.3,33.7,42.3C1159.2,251.9,1173.7,235.1,1173.7,209.8z"/>
				<path class="st0" d="M1184.5,290.1c0-1.6,1.3-2.5,3.1-2.7c14.1-0.6,14.1-2.3,14.1-12.1V174.1c0-4.5,0-6.8-5.7-6
					c-7.7,1-13,3.3-13.4,0.2c-0.2-2.3,2.2-3.3,4.2-3.7c9.7-2.3,17.4-5.1,20-5.1c2.9,0,4,1.4,4,4.3v15c0,2.1,0.2,2.7,0.7,2.7
					c1.1,0,8.4-22.8,37.2-22.8c22.7,0,40.5,17.9,40.5,48.9c0,29.2-18.5,49.9-44.2,49.9c-13.2,0-21.6-4.9-28.4-12.3
					c-1.5-1.4-3.3-3.5-4-3.5c-1.1,0-1.8,1.2-1.8,4.7v29.2c0,9.9,0,11.3,14.3,11.9c2,0.2,3.5,1,3.5,2.7c0,1.4-1.3,2.7-5.5,2.7
					c-10.8-0.2-21.8-0.2-32.6,0C1186,292.8,1184.5,291.5,1184.5,290.1z M1279.5,209.8c0-27.3-14.3-44.4-33.7-44.4
					c-23.8,0-35.2,18.1-35.2,39.8v4.3c0,29,13.6,42.3,33.7,42.3C1265,251.9,1279.5,235.1,1279.5,209.8z"/>
			</g>
		</g>
	</g>
	<circle class="st1" cx="189.6" cy="188.4" r="153.6"/>
	<path class="st2" d="M213.7,199.3c1.5-4.6,3.3-11.2,2.8-18c-0.4-4.9,4.2-7.3,8.6-5.7c0.5,0.2,1,0.4,1.5,0.5
		c6.7,2.7,12.7,7.1,17.5,12.8c5.7,6.7,3.4,12.7-4,16.5c-5.6,2.9-11.5,5.2-16.1,6.9c-5.2,1.8-5,1.5-8.3-2.2c-0.2-0.2-0.3-0.4-0.5-0.6
		C210.9,205.3,211.5,206.1,213.7,199.3L213.7,199.3z M214,186.6c0,5.7-1.3,10.8-2.7,14.4c-2.5,6.2-3.2,3.9-8.2,5.4
		c-2.6,0.8-5.2,2.3-5.8,4.3c-0.9,2.9,2.3,5.5,6,2.9c1.2-0.8,2.4-1.1,3.5-1c0.9,0.1,1.7,0.4,2.5,0.9s1.6,1.3,2.2,2.2
		c1.7,2.6,2,6.5-0.4,10.7c-2.1,3.5-5.1,5.9-8.5,6.9c-3.6,1.1-7.7,0.9-11.4-0.7c-6.3-2.8-10.9-7.7-13.5-13.5
		c-3.5-7.9-2.9-16.8,0.6-24.5c3.7-8.3,10.6-14.6,18.8-18.1C207.3,172.1,214.1,174.7,214,186.6L214,186.6z M225.1,215.7
		c4.4-1.6,9.3-4.6,14.6-7.2c9.6-4.8,16.2-1,17.4,9.2c0.3,2.5,0.4,5.1,0.3,7.6c-0.1,3.7-0.5,7.1-1.3,10.5c-1.9,8.5-4.7,12-13.3,9.4
		c-6.6-1.9-28.8-9.1-25-17.7c0.9-2.2,1.4-4.3,1.5-6.3C219.7,217.5,221.9,216.8,225.1,215.7L225.1,215.7z M221,237.8
		c5.4,3.2,12.9,7.2,20.8,10.1c5.7,2.1,8.6,3.5,4.7,9c-5.8,8.2-13.5,15.3-22.7,20.5c-8.4,4.8-13.9-6.2-16.7-12.6
		c-2.3-5.2-3.7-10.4-4.7-14.9c-1.6-7-0.1-8.5,5.8-11.7C215.4,234.3,212.9,233,221,237.8L221,237.8z M199.8,248.4
		c1.6,6.2,4.2,14.3,7.6,22.3c3.1,7.4,3.4,13-5.2,14.6c-11,2.1-22,1.3-32.8-1.8c-16.4-4.8-24-11.5-10.7-27.3
		c4.6-5.5,9.4-10.4,13.5-14.7c7-7.3,7.6-6.3,16.1-2.6c1.3,0.6,2.6,1,3.9,1.3C198,241.5,198.3,242.6,199.8,248.4L199.8,248.4z
		 M169.8,240.4c-4.5,4.7-9.7,10.4-14.5,16.4c-8.4,10.4-12.2,15.4-23,4.6c-3.5-3.6-6.7-7.4-9.6-11.5c-2.8-3.9-4-7.9-2.9-11.1
		c1.8-5,9.1-10.5,14.7-14.7c7.1-5.3,31.9-14.2,37-2.4c0.4,0.9,0.8,1.8,1.3,2.6C177.1,232.3,176.2,233.8,169.8,240.4L169.8,240.4z
		 M159.6,212.2c-9.2,1.9-20.6,5.4-28,11c-9,6.8-20.7,5.9-23.4-6.3c-2.2-10.1-2.8-20.6-1.5-31c1-8.3,4.3-11.9,7.6-14.6
		c10.1-8.2,46.5,7.7,53.9,16.6c2.2,2.6,2.6,6.5,1.9,9.1c-0.6,2.1-1,4.2-1.3,6.4C168.3,207.5,163.8,211.3,159.6,212.2L159.6,212.2z
		 M168.2,183.4c-8.8-5.4-22.4-13.6-37.1-18.7c-8.9-3.1-14.1-12.6-7.7-21.4c5.4-7.5,11.2-14,18-19.6c5.3-4.5,17.3-15.1,21.4-3.2
		c5.7,16.6-0.1,23.3,18.3,43.4c6.2,6.7,9.4,7.1,2,13.4c-1.3,1.1-2.6,2.3-3.8,3.6C175.1,185.3,173.6,186.7,168.2,183.4L168.2,183.4z
		 M182.8,161.3c-20.5-22.9-8.5-31.2-13.1-47.3c-1.1-3.8-3.2-6.1,1.3-8.1c1.9-0.8,3.7-1.5,5.5-2.2c2.3-0.8,4.6-1.5,7.5-2.3
		c17.7-5.1,37-6.1,56.3-1.8c12.4,2.8,18.5,5.3,10.6,18.6c-9.3,15.7-20.5,21-17.2,40c1.9,11.3-1.2,12.1-10.7,9.8
		c-5.6-1.4-11.5-1.7-17.8-0.7C194.5,168.8,190.6,169.9,182.8,161.3L182.8,161.3z"/>
	<path class="st3" d="M211.2,194.3c1.5-4.6,3.3-11.2,2.8-18c-0.4-4.9,4.2-7.3,8.6-5.7c0.5,0.2,1,0.4,1.5,0.5
		c6.7,2.7,12.7,7.1,17.5,12.8c5.7,6.7,3.4,12.7-4,16.5c-5.6,2.9-11.5,5.2-16.1,6.9c-5.2,1.8-5,1.5-8.3-2.2c-0.2-0.2-0.3-0.4-0.5-0.6
		C208.4,200.3,209,201.1,211.2,194.3L211.2,194.3z M211.5,181.6c0,5.7-1.3,10.8-2.7,14.4c-2.5,6.2-3.2,3.9-8.2,5.4
		c-2.6,0.8-5.2,2.3-5.8,4.3c-0.9,2.9,2.3,5.5,6,2.9c1.2-0.8,2.4-1.1,3.5-1c0.9,0.1,1.7,0.4,2.5,0.9s1.6,1.3,2.2,2.2
		c1.7,2.6,2,6.5-0.4,10.7c-2.1,3.5-5.1,5.9-8.5,6.9c-3.6,1.1-7.7,0.9-11.4-0.7c-6.3-2.8-10.9-7.7-13.5-13.5
		c-3.5-7.9-2.9-16.8,0.6-24.5c3.7-8.3,10.6-14.6,18.8-18.1C204.8,167.1,211.6,169.7,211.5,181.6L211.5,181.6z M222.7,210.7
		c4.4-1.6,9.3-4.6,14.6-7.2c9.6-4.8,16.2-1,17.4,9.2c0.3,2.5,0.4,5.1,0.3,7.6c-0.1,3.7-0.5,7.1-1.3,10.5c-1.9,8.5-4.7,12-13.3,9.4
		c-6.6-1.9-28.8-9.1-25-17.7c0.9-2.2,1.4-4.3,1.5-6.3C217.2,212.5,219.5,211.8,222.7,210.7L222.7,210.7z M218.6,232.8
		c5.4,3.2,12.9,7.2,20.8,10.1c5.7,2.1,8.6,3.5,4.7,9c-5.8,8.2-13.5,15.3-22.7,20.5c-8.4,4.8-13.9-6.2-16.7-12.6
		c-2.3-5.2-3.7-10.4-4.7-14.9c-1.6-7-0.1-8.5,5.8-11.7C212.9,229.3,210.5,228,218.6,232.8L218.6,232.8z M197.3,243.4
		c1.6,6.2,4.2,14.3,7.6,22.3c3.1,7.4,3.4,13-5.2,14.6c-11,2.1-22,1.3-32.8-1.8c-16.4-4.8-24-11.5-10.7-27.3
		c4.6-5.5,9.4-10.4,13.5-14.7c7-7.3,7.6-6.3,16.1-2.6c1.3,0.6,2.6,1,3.9,1.3C195.5,236.4,195.8,237.6,197.3,243.4L197.3,243.4z
		 M167.4,235.4c-4.5,4.7-9.7,10.4-14.5,16.4c-8.4,10.4-12.2,15.4-23,4.6c-3.5-3.6-6.7-7.4-9.6-11.5c-2.8-3.9-4-7.9-2.9-11.1
		c1.8-5,9.1-10.5,14.7-14.7c7.1-5.3,31.9-14.2,37-2.4c0.4,0.9,0.8,1.8,1.3,2.6C174.6,227.2,173.7,228.7,167.4,235.4L167.4,235.4z
		 M157.1,207.2c-9.2,1.9-20.6,5.4-28,11c-9,6.8-20.7,5.9-23.4-6.3c-2.2-10.1-2.8-20.6-1.5-31c1-8.3,4.3-11.9,7.6-14.6
		c10.1-8.2,46.5,7.7,53.9,16.6c2.2,2.6,2.6,6.5,1.9,9.1c-0.6,2.1-1,4.2-1.3,6.4C165.8,202.5,161.3,206.3,157.1,207.2L157.1,207.2z
		 M165.7,178.4c-8.8-5.4-22.4-13.6-37.1-18.7c-8.9-3.1-14.1-12.6-7.7-21.4c5.4-7.5,11.2-14,18-19.6c5.3-4.5,17.3-15.1,21.4-3.2
		c5.7,16.6-0.1,23.3,18.3,43.4c6.2,6.7,9.4,7.1,2,13.4c-1.3,1.1-2.6,2.3-3.8,3.6C172.7,180.3,171.2,181.7,165.7,178.4L165.7,178.4z
		 M180.3,156.2c-20.5-22.9-8.5-31.2-13.1-47.3c-1.1-3.8-3.2-6.1,1.3-8.1c1.9-0.8,3.7-1.5,5.5-2.2c2.3-0.8,4.6-1.5,7.5-2.3
		c17.7-5.1,37-6.1,56.3-1.8c12.4,2.8,18.5,5.3,10.6,18.6c-9.3,15.7-20.5,21-17.2,40c1.9,11.3-1.2,12.1-10.7,9.8
		c-5.6-1.4-11.5-1.7-17.8-0.7C192,163.8,188.1,164.9,180.3,156.2L180.3,156.2z"/>
	<rect class="st4" width="1325" height="378"/>
</g>
</svg>
